<svg width="60" height="60" viewBox="0 0 60 60" fill="none" xmlns="http://www.w3.org/2000/svg">
<circle cx="30" cy="30" r="30" fill="#A67829"/>
<path d="M30 19.44L40 22.94V31C40 35.127 37.467 38.012 35.104 39.803C33.6783 40.874 32.1141 41.747 30.454 42.398C30.4251 42.4092 30.3961 42.4202 30.367 42.431L30.342 42.44L30.335 42.442L30.332 42.443C30.331 42.443 30.33 42.443 30 41.5L29.669 42.444L29.665 42.442L29.658 42.44L29.633 42.43C29.4994 42.3807 29.3667 42.329 29.235 42.275C27.6895 41.6377 26.2312 40.8067 24.895 39.802C22.535 38.013 20 35.128 20 31.001V22.94L30 19.44ZM30 41.5L29.669 42.444L30 42.56L30.331 42.444L30 41.5ZM30 40.428L30.009 40.424C31.3929 39.8525 32.6989 39.1083 33.896 38.209C36.034 36.59 38 34.223 38 31V24.36L30 21.56L22 24.36V31C22 34.223 23.966 36.588 26.104 38.21C27.3037 39.111 28.6128 39.8563 30 40.428ZM36.072 27.343L29.001 34.414L24.758 30.172L26.173 28.757L29 31.586L34.657 25.929L36.072 27.343Z" fill="white"/>
</svg>
