<svg width="60" height="60" viewBox="0 0 60 60" fill="none" xmlns="http://www.w3.org/2000/svg">
<circle cx="30" cy="30" r="30" fill="#A67829"/>
<g clip-path="url(#clip0_102_15)">
<path d="M40.5 33C40.5015 32.249 40.315 31.5095 39.9576 30.8491C39.6001 30.1886 39.083 29.628 38.4535 29.2186C37.8239 28.8091 37.1019 28.5637 36.3532 28.5048C35.6045 28.4458 34.8529 28.5752 34.167 28.8811C33.4812 29.187 32.8827 29.6597 32.4263 30.2562C31.9699 30.8526 31.67 31.5537 31.554 32.2957C31.438 33.0377 31.5095 33.797 31.7621 34.5042C32.0147 35.2115 32.4402 35.8443 33 36.345V42L36 40.5795L39 42V36.345C39.4715 35.9245 39.8489 35.4092 40.1074 34.8328C40.3659 34.2563 40.4997 33.6318 40.5 33ZM37.5 39.63L36 38.9198L34.5 39.63V37.2375C35.4694 37.5876 36.5306 37.5876 37.5 37.2375V39.63ZM36 36C35.4066 36 34.8266 35.8241 34.3333 35.4944C33.8399 35.1648 33.4554 34.6962 33.2284 34.1481C33.0013 33.5999 32.9419 32.9967 33.0576 32.4147C33.1734 31.8328 33.4591 31.2982 33.8787 30.8787C34.2982 30.4591 34.8328 30.1734 35.4147 30.0576C35.9967 29.9419 36.5999 30.0013 37.148 30.2284C37.6962 30.4554 38.1648 30.8399 38.4944 31.3333C38.824 31.8266 39 32.4067 39 33C38.999 33.7953 38.6826 34.5578 38.1202 35.1202C37.5578 35.6826 36.7953 35.999 36 36Z" fill="white"/>
<path d="M36.75 21.75H34.5V21C34.4988 20.6025 34.3404 20.2217 34.0593 19.9407C33.7783 19.6596 33.3975 19.5012 33 19.5H27C26.6025 19.5012 26.2217 19.6596 25.9407 19.9407C25.6596 20.2217 25.5012 20.6025 25.5 21V21.75H23.25C22.8525 21.7512 22.4717 21.9096 22.1907 22.1907C21.9096 22.4717 21.7512 22.8525 21.75 23.25V39C21.7512 39.3975 21.9096 39.7783 22.1907 40.0593C22.4717 40.3404 22.8525 40.4988 23.25 40.5H30V39H23.25V23.25H25.5V25.5H34.5V23.25H36.75V27H38.25V23.25C38.2488 22.8525 38.0904 22.4717 37.8093 22.1907C37.5283 21.9096 37.1475 21.7512 36.75 21.75ZM33 24H27V21H33V24Z" fill="white"/>
</g>
<defs>
<clipPath id="clip0_102_15">
<rect width="24" height="24" fill="white" transform="translate(18 18)"/>
</clipPath>
</defs>
</svg>
