<svg width="60" height="60" viewBox="0 0 60 60" fill="none" xmlns="http://www.w3.org/2000/svg">
<circle cx="30" cy="30" r="30" fill="#A67829"/>
<path d="M36.875 32C36.875 32.2225 36.809 32.44 36.6854 32.625C36.5618 32.81 36.3861 32.9542 36.1805 33.0394C35.975 33.1245 35.7488 33.1468 35.5305 33.1034C35.3123 33.06 35.1118 32.9528 34.9545 32.7955C34.7972 32.6382 34.69 32.4377 34.6466 32.2195C34.6032 32.0012 34.6255 31.775 34.7106 31.5695C34.7958 31.3639 34.94 31.1882 35.125 31.0646C35.31 30.941 35.5275 30.875 35.75 30.875C36.0484 30.875 36.3345 30.9935 36.5455 31.2045C36.7565 31.4155 36.875 31.7016 36.875 32ZM36.4484 35.6834C36.2837 36.7455 35.7449 37.7137 34.9293 38.4135C34.1136 39.1133 33.0747 39.4986 32 39.5H29.75C28.5569 39.4988 27.413 39.0243 26.5694 38.1806C25.7257 37.337 25.2512 36.1931 25.25 35V31.2022C23.8002 31.0195 22.4669 30.3141 21.5002 29.2182C20.5336 28.1223 20.0002 26.7113 20 25.25V21.5C20 21.1022 20.158 20.7206 20.4393 20.4393C20.7206 20.158 21.1022 20 21.5 20H23C23.1989 20 23.3897 20.079 23.5303 20.2197C23.671 20.3603 23.75 20.5511 23.75 20.75C23.75 20.9489 23.671 21.1397 23.5303 21.2803C23.3897 21.421 23.1989 21.5 23 21.5H21.5V25.25C21.4999 25.846 21.6183 26.4361 21.8482 26.986C22.0781 27.536 22.4149 28.0347 22.8392 28.4534C23.2634 28.872 23.7666 29.2022 24.3195 29.4248C24.8724 29.6474 25.464 29.7579 26.06 29.75C28.5078 29.7181 30.5 27.6641 30.5 25.1722V21.5H29C28.8011 21.5 28.6103 21.421 28.4697 21.2803C28.329 21.1397 28.25 20.9489 28.25 20.75C28.25 20.5511 28.329 20.3603 28.4697 20.2197C28.6103 20.079 28.8011 20 29 20H30.5C30.8978 20 31.2794 20.158 31.5607 20.4393C31.842 20.7206 32 21.1022 32 21.5V25.1722C32 28.2509 29.7003 30.8244 26.75 31.2012V35C26.75 35.7956 27.0661 36.5587 27.6287 37.1213C28.1913 37.6839 28.9543 38 29.75 38H32C32.6813 37.9989 33.3419 37.7663 33.8737 37.3405C34.4055 36.9147 34.7769 36.3208 34.9269 35.6562C34.0211 35.4528 33.223 34.9206 32.687 34.1626C32.1509 33.4046 31.9151 32.4748 32.0252 31.553C32.1352 30.6312 32.5832 29.7829 33.2826 29.1724C33.9819 28.5619 34.8829 28.2325 35.8111 28.2479C36.7393 28.2634 37.6288 28.6226 38.3075 29.256C38.9862 29.8895 39.4057 30.7521 39.485 31.6771C39.5643 32.602 39.2977 33.5235 38.7368 34.2633C38.1759 35.003 37.3605 35.5083 36.4484 35.6816V35.6834ZM38 32C38 31.555 37.868 31.12 37.6208 30.75C37.3736 30.38 37.0222 30.0916 36.611 29.9213C36.1999 29.751 35.7475 29.7064 35.311 29.7932C34.8746 29.88 34.4737 30.0943 34.159 30.409C33.8443 30.7237 33.63 31.1246 33.5432 31.561C33.4564 31.9975 33.501 32.4499 33.6713 32.861C33.8416 33.2722 34.13 33.6236 34.5 33.8708C34.87 34.118 35.305 34.25 35.75 34.25C36.3467 34.25 36.919 34.0129 37.341 33.591C37.7629 33.169 38 32.5967 38 32Z" fill="white"/>
</svg>
